<svg width="128" height="128" viewBox="0 0 128 128" fill="none" xmlns="http://www.w3.org/2000/svg">
<rect width="128" height="128" rx="64" fill="#FAFAFA"/>
<path d="M30.1981 63.9591C30.1981 62.1614 30.1812 60.9628 30.1474 60.3636C30.1137 59.5176 30.0123 58.8831 29.8435 58.4601C29.6746 58.0018 29.4044 57.7198 29.0329 57.6141C28.6276 57.5083 28.0704 57.4554 27.3611 57.4554H26.6519V50H27.3611C30.2994 50 32.596 50.2468 34.2509 50.7403C35.9058 51.1985 37.1386 51.974 37.9491 53.0668C38.6921 54.0538 39.165 55.3757 39.3676 57.0324C39.604 58.654 39.7222 60.9628 39.7222 63.9591C39.7222 66.7439 39.6378 68.9118 39.4689 70.4628C39.3338 71.9786 38.9792 73.23 38.4051 74.217C37.7634 75.3097 36.8008 76.1381 35.5174 76.7021C34.234 77.2309 32.4609 77.5657 30.1981 77.7067V63.9591ZM27.3611 77.8125C24.4228 77.8125 22.1262 77.5834 20.4713 77.1251C18.8164 76.6669 17.5837 75.8914 16.7731 74.7986C16.0301 73.8116 15.5404 72.5073 15.304 70.8858C15.1013 69.2643 15 66.9554 15 63.9591C15 61.2096 15.0844 59.0593 15.2533 57.5083C15.4222 55.9573 15.7937 54.6707 16.3678 53.6484C16.9758 52.5204 17.9214 51.692 19.2048 51.1633C20.4882 50.5993 22.2613 50.2468 24.5241 50.1057V63.9591C24.5241 65.7569 24.541 66.9378 24.5748 67.5018C24.6086 68.3478 24.7099 68.9823 24.8788 69.4053C25.0476 69.8283 25.3347 70.0927 25.74 70.1984C26.0777 70.3042 26.6181 70.3571 27.3611 70.3571H28.0704V77.8125H27.3611Z" fill="#212121"/>
<path d="M58.2519 77.8125H49.2809V58.4957C47.4513 59.4032 45.5346 59.9664 43.5308 60.1855L43.5313 54.9775C45.1643 54.4122 44.2931 54.7564 45.1643 54.4122C46.0355 54.0679 46.8741 53.6533 47.68 53.1683C48.4858 52.6832 49.2047 52.1669 49.8363 51.6193C50.4679 51.0717 50.9362 50.532 51.2412 50H58.2634L58.2519 77.8125Z" fill="#212121"/>
<path d="M64.0658 64.8477C64.0658 62.9469 64.0484 61.6917 64.0136 61.082C63.9441 60.0778 63.8572 59.4143 63.7529 59.0915C63.6138 58.7329 63.3704 58.5177 63.0227 58.446C62.675 58.3384 62.1186 58.2846 61.3536 58.2846H60.8321V51.5601C62.1882 50.52 63.9615 50 66.1521 50C69.2815 50 71.3851 50.9863 72.463 52.9588C72.9498 53.8195 73.2801 54.8775 73.454 56.1327C73.6278 57.3521 73.7148 58.8584 73.7148 60.6516V77.8125H64.0658V64.8477Z" fill="#212121"/>
<path d="M88.6933 61.2625H92.3753C92.3753 59.2885 92.1824 58.0194 91.7967 57.4554C91.5863 57.1382 91.3058 56.9443 90.9551 56.8738C90.6044 56.7681 90.096 56.7152 89.4297 56.7152H88.6933V50H89.4297C92.4454 50 94.7599 50.2468 96.3729 50.7403C98.0211 51.2338 99.2309 52.0445 100.002 53.1725C100.704 54.1595 101.125 55.4285 101.265 56.9796C101.44 58.5306 101.528 60.8571 101.528 63.9591V66.0741H88.6933V61.2625ZM90.4817 77.8125C87.2555 77.8125 84.7132 77.5481 82.8546 77.0194C81.0311 76.4554 79.6635 75.5741 78.7518 74.3756C77.9452 73.3181 77.4192 72.0138 77.1738 70.4628C76.9283 68.8765 76.8056 66.7087 76.8056 63.9591C76.8056 61.4211 76.8932 59.4118 77.0686 57.9313C77.2439 56.4156 77.6121 55.1289 78.1732 54.0714C78.8044 52.9082 79.7687 52.0093 81.0662 51.3748C82.3987 50.705 84.2047 50.282 86.4841 50.1057V66.0741C86.4841 67.2727 86.5367 68.1363 86.6419 68.665C86.7471 69.1585 86.9925 69.5287 87.3783 69.7754C87.7991 70.0574 88.4478 70.2161 89.3245 70.2513C90.4466 70.3218 91.6389 70.3571 92.9013 70.3571C95.1456 70.3571 96.7762 70.3042 97.7932 70.1984L100.476 69.9869V76.8079C99.0731 77.2309 97.1444 77.5129 94.6897 77.6539C93.4975 77.7596 92.0948 77.8125 90.4817 77.8125Z" fill="#212121"/>
<path d="M104.618 73.177C104.618 70.617 106.693 68.5416 109.253 68.5416C111.814 68.5416 113.889 70.617 113.889 73.177C113.889 75.7371 111.814 77.8125 109.253 77.8125C106.693 77.8125 104.618 75.7371 104.618 73.177Z" fill="#FEBF46"/>
</svg>
