<svg width="64" height="18" viewBox="0 0 64 18" fill="none" xmlns="http://www.w3.org/2000/svg">
<g clip-path="url(#clip0_1_534)">
<path d="M9.83605 9.0342C9.83605 7.8707 9.82515 7.09505 9.8033 6.7072C9.7814 6.1597 9.71585 5.74905 9.60655 5.4753C9.49725 5.1787 9.3224 4.99619 9.08195 4.92775C8.81965 4.85931 8.459 4.8251 8 4.8251H7.541V0H8C9.90165 0 11.388 0.159696 12.459 0.479088C13.53 0.775665 14.3279 1.27757 14.8525 1.98479C15.3334 2.62357 15.6393 3.47908 15.7705 4.55133C15.9235 5.60075 16 7.09505 16 9.0342C16 10.8365 15.9453 12.2395 15.8361 13.2434C15.7486 14.2243 15.5191 15.0342 15.1475 15.673C14.7322 16.3803 14.1093 16.9163 13.2787 17.2813C12.4481 17.6235 11.3006 17.8403 9.83605 17.9315V9.0342ZM8 18C6.09835 18 4.61202 17.8517 3.54099 17.5551C2.46994 17.2585 1.67213 16.7566 1.14754 16.0494C0.666665 15.4107 0.349726 14.5666 0.196721 13.5171C0.0655735 12.4677 0 10.9734 0 9.0342C0 7.25475 0.054645 5.8631 0.163934 4.85931C0.273224 3.85552 0.51366 3.02282 0.885245 2.36122C1.27869 1.63118 1.89071 1.09505 2.72131 0.75285C3.55191 0.387832 4.69946 0.159695 6.16395 0.06844V9.0342C6.16395 10.1977 6.17485 10.962 6.1967 11.327C6.2186 11.8745 6.28415 12.2852 6.39345 12.559C6.50275 12.8327 6.6885 13.0038 6.9508 13.0723C7.1694 13.1407 7.51915 13.1749 8 13.1749H8.459V18H8Z" fill="#212121"/>
<path d="M27.9923 18H22.1863V5.49835C21.0022 6.08565 19.7617 6.4502 18.4649 6.59195L18.4652 3.22139C19.5221 2.85551 18.9582 3.07827 19.5221 2.85551C20.0859 2.63272 20.6286 2.36438 21.1502 2.05048C21.6718 1.73656 22.137 1.40242 22.5458 1.04803C22.9545 0.693605 23.2576 0.344281 23.455 0H27.9997L27.9923 18Z" fill="#212121"/>
<path d="M31.755 9.6093C31.755 8.3791 31.7437 7.56675 31.7212 7.17215C31.6762 6.52225 31.6199 6.09285 31.5524 5.88395C31.4624 5.65185 31.3049 5.51255 31.0799 5.46615C30.8548 5.3965 30.4948 5.3617 29.9997 5.3617H29.6621V1.00967C30.5398 0.336557 31.6875 0 33.1052 0C35.1305 0 36.492 0.6383 37.1896 1.9149C37.5046 2.47196 37.7184 3.15667 37.8309 3.96905C37.9434 4.75822 37.9997 5.7331 37.9997 6.8936V18H31.755V9.6093Z" fill="#212121"/>
<path d="M47.6936 7.28895H50.0765C50.0765 6.0114 49.9518 5.1901 49.7021 4.8251C49.5659 4.61977 49.3844 4.4943 49.1575 4.44867C48.9305 4.38023 48.6014 4.346 48.1702 4.346H47.6936V0H48.1702C50.122 0 51.62 0.159696 52.664 0.479088C53.7305 0.79848 54.5135 1.32319 55.013 2.05323C55.4665 2.69202 55.739 3.51331 55.83 4.51711C55.9435 5.5209 56 7.0266 56 9.0342V10.4031H47.6936V7.28895ZM48.8511 18C46.7631 18 45.1178 17.8289 43.9149 17.4867C42.7348 17.1217 41.8497 16.5513 41.2596 15.7757C40.7376 15.0913 40.3972 14.2472 40.2383 13.2434C40.0795 12.2168 40 10.8137 40 9.0342C40 7.39165 40.0568 6.09125 40.1702 5.1331C40.2837 4.15209 40.522 3.31939 40.8851 2.63498C41.2936 1.88213 41.9178 1.30038 42.7575 0.889735C43.6199 0.456273 44.7887 0.182508 46.2639 0.06844V10.4031C46.2639 11.1787 46.2979 11.7376 46.366 12.0799C46.4341 12.3993 46.5929 12.6388 46.8425 12.7985C47.1149 12.981 47.5347 13.0836 48.1021 13.1065C48.8284 13.1521 49.6 13.1749 50.417 13.1749C51.8695 13.1749 52.925 13.1407 53.583 13.0723L55.319 12.9354V17.3498C54.4115 17.6236 53.163 17.8061 51.5745 17.8974C50.803 17.9658 49.8951 18 48.8511 18Z" fill="#212121"/>
<path d="M58 15C58 13.3431 59.343 12 61 12C62.657 12 64 13.3431 64 15C64 16.6568 62.657 18 61 18C59.343 18 58 16.6568 58 15Z" fill="#FEBF46"/>
</g>
<defs>
<clipPath id="clip0_1_534">
<rect width="64" height="18" fill="white"/>
</clipPath>
</defs>
</svg>
